{
	"asset":{
		"generator":"Khronos glTF Blender I/O v4.3.47",
		"version":"2.0"
	},
	"extensionsUsed":[
		"KHR_lights_punctual"
	],
	"extensionsRequired":[
		"KHR_lights_punctual"
	],
	"extensions":{
		"KHR_lights_punctual":{
			"lights":[
				{
					"color":[
						1,
						1,
						1
					],
					"intensity":543514.1306588226,
					"spot":{
						"innerConeAngle":0.02967063167746886,
						"outerConeAngle":0.034906625747680664
					},
					"type":"spot",
					"name":"Area"
				}
			]
		}
	},
	"scene":0,
	"scenes":[
		{
			"name":"Scene",
			"nodes":[
				0,
				1,
				2,
				3,
				4,
				5
			]
		}
	],
	"nodes":[
		{
			"mesh":0,
			"name":"Suzanne"
		},
		{
			"camera":0,
			"name":"Camera",
			"rotation":[
				-0.0011940207332372665,
				-0.9396870136260986,
				-0.0032796296291053295,
				0.3420177102088928
			],
			"translation":[
				-4.693668365478516,
				0.5112978219985962,
				-5.3793864250183105
			]
		},
		{
			"name":"TriLamp-Back",
			"rotation":[
				-0.25619783997535706,
				0.686963677406311,
				0.28506454825401306,
				0.617399275302887
			],
			"translation":[
				4.9589362144470215,
				5,
				-0.5304499268531799
			]
		},
		{
			"name":"TriLamp-Fill",
			"rotation":[
				-0.26165059208869934,
				-0.6749227046966553,
				-0.28006789088249207,
				0.6305397152900696
			],
			"translation":[
				-4.975710868835449,
				5,
				-0.33871904015541077
			]
		},
		{
			"name":"TriLamp-Key",
			"rotation":[
				-0.05037755146622658,
				-0.9156213402748108,
				-0.3799488842487335,
				0.1214025467634201
			],
			"translation":[
				-1.2996678352355957,
				5,
				-4.814903259277344
			]
		},
		{
			"extensions":{
				"KHR_lights_punctual":{
					"light":0
				}
			},
			"name":"Area",
			"rotation":[
				-0.7071068286895752,
				0,
				0,
				0.7071068286895752
			],
			"scale":[
				1.1583963632583618,
				1.1583962440490723,
				1.1583962440490723
			],
			"translation":[
				0,
				12.582831382751465,
				0
			]
		}
	],
	"cameras":[
		{
			"name":"Camera",
			"perspective":{
				"aspectRatio":1,
				"yfov":0.6911112070083618,
				"zfar":1000,
				"znear":0.10000000149011612
			},
			"type":"perspective"
		}
	],
	"materials":[
		{
			"doubleSided":true,
			"name":"Skin",
			"normalTexture":{
				"index":0,
				"scale":2,
				"texCoord":1
			},
			"pbrMetallicRoughness":{
				"baseColorTexture":{
					"index":1,
					"texCoord":1
				},
				"metallicFactor":0,
				"metallicRoughnessTexture":{
					"index":2,
					"texCoord":1
				}
			}
		}
	],
	"meshes":[
		{
			"name":"Suzanne",
			"primitives":[
				{
					"attributes":{
						"POSITION":0,
						"NORMAL":1,
						"TEXCOORD_0":2,
						"TEXCOORD_1":3
					},
					"indices":4,
					"material":0
				}
			]
		}
	],
	"textures":[
		{
			"sampler":0,
			"source":0
		},
		{
			"sampler":0,
			"source":1
		},
		{
			"sampler":0,
			"source":2
		}
	],
	"images":[
		{
			"mimeType":"image/jpeg",
			"name":"skin-6_bump",
			"uri":"skin-6_bump.jpg"
		},
		{
			"mimeType":"image/jpeg",
			"name":"skin-6_diffuse",
			"uri":"skin-6_diffuse.jpg"
		},
		{
			"mimeType":"image/png",
			"name":"skin-6_smooth",
			"uri":"skin-6_smooth.png"
		}
	],
	"accessors":[
		{
			"bufferView":0,
			"componentType":5126,
			"count":1966,
			"max":[
				1.3671875,
				0.984375,
				0.8515625
			],
			"min":[
				-1.3671875,
				-0.984375,
				-0.8515625
			],
			"type":"VEC3"
		},
		{
			"bufferView":1,
			"componentType":5126,
			"count":1966,
			"type":"VEC3"
		},
		{
			"bufferView":2,
			"componentType":5126,
			"count":1966,
			"type":"VEC2"
		},
		{
			"bufferView":3,
			"componentType":5126,
			"count":1966,
			"type":"VEC2"
		},
		{
			"bufferView":4,
			"componentType":5123,
			"count":2904,
			"type":"SCALAR"
		}
	],
	"bufferViews":[
		{
			"buffer":0,
			"byteLength":23592,
			"byteOffset":0,
			"target":34962
		},
		{
			"buffer":0,
			"byteLength":23592,
			"byteOffset":23592,
			"target":34962
		},
		{
			"buffer":0,
			"byteLength":15728,
			"byteOffset":47184,
			"target":34962
		},
		{
			"buffer":0,
			"byteLength":15728,
			"byteOffset":62912,
			"target":34962
		},
		{
			"buffer":0,
			"byteLength":5808,
			"byteOffset":78640,
			"target":34963
		}
	],
	"samplers":[
		{
			"magFilter":9729,
			"minFilter":9987
		}
	],
	"buffers":[
		{
			"byteLength":84448,
			"uri":"untitled.bin"
		}
	]
}
